P1
42 42
111111111111110011111100110011111111111111
111111111111110011111100110011111111111111
110000000000110011000011110011000000000011
110000000000110011000011110011000000000011
110011111100110011000011000011001111110011
110011111100110011000011000011001111110011
110011111100110000110000000011001111110011
110011111100110000110000000011001111110011
110011111100110011000011000011001111110011
110011111100110011000011000011001111110011
110000000000110011110000000011000000000011
110000000000110011110000000011000000000011
111111111111110011001100110011111111111111
111111111111110011001100110011111111111111
000000000000000011000000000000000000000000
000000000000000011000000000000000000000000
000011000000111111000011111111111100111111
000011000000111111000011111111111100111111
001100110011000011001100111111001111000011
001100110011000011001100111111001111000011
001100110011110011001111111111110011001100
001100110011110011001111111111110011001100
001100110011000011001100001100111111000000
001100110011000011001100001100111111000000
001100110011110011001100001111110000110011
001100110011110011001100001111110000110011
000000000000000011001100000000110011110000
000000000000000011001100000000110011110000
111111111111110011001100000011110000001100
111111111111110011001100000011110000001100
110000000000110000001111001100000011000000
110000000000110000001111001100000011000000
110011111100110000001100000011000000111111
110011111100110000001100000011000000111111
110011111100110000001100111111001111110000
110011111100110000001100111111001111110000
110011111100110011001100000000000000000000
110011111100110011001100000000000000000000
110000000000110000001100001100111111000000
110000000000110000001100001100111111000000
111111111111110000001111000011111100111100
111111111111110000001111000011111100111100
