P1
42 42
111111111111110011111100110011111111111111
111111111111110011111100110011111111111111
110000000000110011000011110011000000000011
110000000000110011000011110011000000000011
110011111100110011000011000011001111110011
110011111100110011000011000011001111110011
110011111100110000110000000011001111110011
110011111100110000110000000011001111110011
110011111100110000000011000011001111110011
110011111100110000000011000011001111110011
110000000000110011110000000011000000000011
110000000000110011110000000011000000000011
111111111111110011001100110011111111111111
111111111111110011001100110011111111111111
000000000000000000000000000000000000000000
000000000000000000000000000000000000000000
111100001111111111000011111100110000111111
111100001111111111000011111100110000111111
001100110011000011001100111111001100110011
001100110011000011001100111111001100110011
001100110011110011001111110000111111001100
001100110011110011001111110000111111001100
001100110011000011001111000000110011000000
001100110011000011001111000000110011000000
001100110011110011001100001100000011111100
001100110011110011001100001100000011111100
000000000000000011001111000000110011001111
000000000000000011001111000000110011001111
111111111111110011001100001100000000001100
111111111111110011001100001100000000001100
110000000000110011001100001111000011000000
110000000000110011001100001111000011000000
110011111100110011001111110011111100111100
110011111100110011001111110011111100111100
110011111100110000001100111111001100110000
110011111100110000001100111111001100110000
110011111100110000001111110000111111000000
110011111100110000001111110000111111000000
110000000000110011001111000000000000000000
110000000000110011001111000000000000000000
111111111111110011001100001100000000001100
111111111111110011001100001100000000001100
