P1
21 21
111111100110101111111
100000101001101000001
101110101001001011101
101110100100001011101
101110100001001011101
100000101100001000001
111111101010101111111
000000001000000000000
010000111001111100110
010101001010111010101
010101101011100110010
010101001011000101011
010101101010010000110
000000001011000101001
111111101010010000010
100000100010011001000
101110100011101110110
101110100010111011000
101110100011100111100
100000101011000000000
111111100010010000010
